<svg width="187" height="27" viewBox="0 0 187 27" fill="none" xmlns="http://www.w3.org/2000/svg">
<path d="M24.56 3.664V26H20.08V11.472L14.096 26H10.704L4.688 11.472V26H0.208V3.664H5.296L12.4 20.272L19.504 3.664H24.56ZM36.8613 26.288C35.1546 26.288 33.6186 25.9147 32.2533 25.168C30.8879 24.4 29.8106 23.3227 29.0213 21.936C28.2533 20.5493 27.8693 18.9493 27.8693 17.136C27.8693 15.3227 28.2639 13.7227 29.0533 12.336C29.8639 10.9493 30.9626 9.88267 32.3493 9.136C33.7359 8.368 35.2826 7.984 36.9893 7.984C38.6959 7.984 40.2426 8.368 41.6293 9.136C43.0159 9.88267 44.1039 10.9493 44.8933 12.336C45.7039 13.7227 46.1093 15.3227 46.1093 17.136C46.1093 18.9493 45.6933 20.5493 44.8612 21.936C44.0506 23.3227 42.9413 24.4 41.5333 25.168C40.1466 25.9147 38.5893 26.288 36.8613 26.288ZM36.8613 22.384C37.6719 22.384 38.4293 22.192 39.1333 21.808C39.8586 21.4027 40.4346 20.8053 40.8613 20.016C41.2879 19.2267 41.5013 18.2667 41.5013 17.136C41.5013 15.4507 41.0533 14.16 40.1573 13.264C39.2826 12.3467 38.2053 11.888 36.9253 11.888C35.6453 11.888 34.5679 12.3467 33.6933 13.264C32.8399 14.16 32.4133 15.4507 32.4133 17.136C32.4133 18.8213 32.8293 20.1227 33.6613 21.04C34.5146 21.936 35.5813 22.384 36.8613 22.384ZM56.7875 21.872L61.2675 8.272H66.0355L59.4755 26H54.0355L47.5075 8.272H52.3075L56.7875 21.872ZM70.8238 6.16C70.0344 6.16 69.3731 5.91467 68.8398 5.424C68.3278 4.912 68.0718 4.28267 68.0718 3.536C68.0718 2.78933 68.3278 2.17067 68.8398 1.68C69.3731 1.168 70.0344 0.911999 70.8238 0.911999C71.6131 0.911999 72.2638 1.168 72.7758 1.68C73.3091 2.17067 73.5758 2.78933 73.5758 3.536C73.5758 4.28267 73.3091 4.912 72.7758 5.424C72.2638 5.91467 71.6131 6.16 70.8238 6.16ZM73.0318 8.272V26H68.5518V8.272H73.0318ZM93.938 16.752C93.938 17.392 93.8953 17.968 93.81 18.48H80.85C80.9567 19.76 81.4047 20.7627 82.194 21.488C82.9833 22.2133 83.954 22.576 85.106 22.576C86.77 22.576 87.954 21.8613 88.658 20.432H93.49C92.978 22.1387 91.9967 23.5467 90.546 24.656C89.0953 25.744 87.314 26.288 85.202 26.288C83.4953 26.288 81.9593 25.9147 80.594 25.168C79.25 24.4 78.194 23.3227 77.426 21.936C76.6793 20.5493 76.306 18.9493 76.306 17.136C76.306 15.3013 76.6793 13.6907 77.426 12.304C78.1727 10.9173 79.218 9.85067 80.562 9.104C81.906 8.35733 83.4527 7.984 85.202 7.984C86.8873 7.984 88.3913 8.34667 89.714 9.072C91.058 9.79733 92.0927 10.832 92.818 12.176C93.5647 13.4987 93.938 15.024 93.938 16.752ZM89.298 15.472C89.2767 14.32 88.8607 13.4027 88.05 12.72C87.2393 12.016 86.2473 11.664 85.074 11.664C83.9647 11.664 83.026 12.0053 82.258 12.688C81.5113 13.3493 81.0527 14.2773 80.882 15.472H89.298Z" fill="white"/>
<path d="M111.192 3.696V6.064H105.112V26H102.2V6.064H96.088V3.696H111.192ZM116.281 5.616C115.726 5.616 115.257 5.424 114.873 5.04C114.489 4.656 114.297 4.18667 114.297 3.632C114.297 3.07733 114.489 2.608 114.873 2.224C115.257 1.84 115.726 1.648 116.281 1.648C116.814 1.648 117.262 1.84 117.625 2.224C118.009 2.608 118.201 3.07733 118.201 3.632C118.201 4.18667 118.009 4.656 117.625 5.04C117.262 5.424 116.814 5.616 116.281 5.616ZM117.689 8.464V26H114.777V8.464H117.689ZM121.564 17.2C121.564 15.3867 121.926 13.808 122.652 12.464C123.377 11.0987 124.38 10.0427 125.66 9.296C126.961 8.54933 128.444 8.176 130.108 8.176C132.262 8.176 134.033 8.69867 135.42 9.744C136.828 10.7893 137.756 12.24 138.204 14.096H135.068C134.769 13.0293 134.182 12.1867 133.308 11.568C132.454 10.9493 131.388 10.64 130.108 10.64C128.444 10.64 127.1 11.216 126.076 12.368C125.052 13.4987 124.54 15.1093 124.54 17.2C124.54 19.312 125.052 20.944 126.076 22.096C127.1 23.248 128.444 23.824 130.108 23.824C131.388 23.824 132.454 23.5253 133.308 22.928C134.161 22.3307 134.748 21.4773 135.068 20.368H138.204C137.734 22.16 136.796 23.6 135.388 24.688C133.98 25.7547 132.22 26.288 130.108 26.288C128.444 26.288 126.961 25.9147 125.66 25.168C124.38 24.4213 123.377 23.3653 122.652 22C121.926 20.6347 121.564 19.0347 121.564 17.2ZM151.881 26L145.001 18.256V26H142.089V2.32H145.001V16.24L151.753 8.464H155.817L147.561 17.2L155.849 26H151.881ZM174.558 16.56C174.558 17.1147 174.526 17.7013 174.462 18.32H160.446C160.552 20.048 161.139 21.4027 162.206 22.384C163.294 23.344 164.606 23.824 166.142 23.824C167.4 23.824 168.446 23.536 169.278 22.96C170.131 22.3627 170.728 21.5733 171.07 20.592H174.206C173.736 22.2773 172.798 23.6533 171.39 24.72C169.982 25.7653 168.232 26.288 166.142 26.288C164.478 26.288 162.984 25.9147 161.662 25.168C160.36 24.4213 159.336 23.3653 158.59 22C157.843 20.6133 157.47 19.0133 157.47 17.2C157.47 15.3867 157.832 13.7973 158.558 12.432C159.283 11.0667 160.296 10.0213 161.598 9.296C162.92 8.54933 164.435 8.176 166.142 8.176C167.806 8.176 169.278 8.53867 170.558 9.264C171.838 9.98933 172.819 10.992 173.502 12.272C174.206 13.5307 174.558 14.96 174.558 16.56ZM171.55 15.952C171.55 14.8427 171.304 13.8933 170.814 13.104C170.323 12.2933 169.651 11.6853 168.798 11.28C167.966 10.8533 167.038 10.64 166.014 10.64C164.542 10.64 163.283 11.1093 162.238 12.048C161.214 12.9867 160.627 14.288 160.478 15.952H171.55ZM181.954 10.864V21.2C181.954 22.0533 182.135 22.6613 182.498 23.024C182.86 23.3653 183.49 23.536 184.385 23.536H186.53V26H183.906C182.284 26 181.068 25.6267 180.258 24.88C179.447 24.1333 179.042 22.9067 179.042 21.2V10.864H176.77V8.464H179.042V4.048H181.954V8.464H186.53V10.864H181.954Z" fill="url(#paint0_linear_22_2)"/>
<defs>
<linearGradient id="paint0_linear_22_2" x1="103" y1="15" x2="110.475" y2="39.0734" gradientUnits="userSpaceOnUse">
<stop stop-color="#3B82F6"/>
<stop offset="1" stop-color="#60A5FA"/>
</linearGradient>
</defs>
</svg>
